# Blender v2.90.1 OBJ File: 'octahedron.blend'
# www.blender.org
v 0.187521 -0.970646 -1.228142
v 1.207820 0.876573 -0.508370
v 0.995820 -0.880418 0.847893
v -0.187516 0.970642 1.228145
v -1.207837 -0.876558 0.508356
v -0.995816 0.880413 -0.847889
vt 0.998008 0.628178
vt 0.686860 0.544806
vt 0.914637 0.317026
vt 0.452944 0.628175
vt 0.369576 0.317026
vt 0.680725 0.400398
vt 0.363441 0.317026
vt 0.280073 0.628175
vt 0.052293 0.400398
vt 0.313140 0.229663
vt 0.001992 0.313035
vt 0.085363 0.001883
vt 0.631013 0.313035
vt 0.319866 0.229659
vt 0.547643 0.001883
vt 0.085364 0.943315
vt 0.001992 0.632167
vt 0.313140 0.715538
vt 0.319866 0.632167
vt 0.631014 0.715539
vt 0.403238 0.943315
vt 0.637545 0.085259
vt 0.948692 0.001883
vt 0.865321 0.313035
vn 0.8756 -0.3569 -0.3254
vn 0.7383 0.3541 0.5741
vn -0.1463 -0.2880 0.9464
vn -0.0090 -0.9989 0.0469
vn 0.0090 0.9989 -0.0469
vn 0.1463 0.2880 -0.9464
vn -0.7383 -0.3540 -0.5741
vn -0.8756 0.3569 0.3254
s off
f 1/1/1 2/2/1 3/3/1
f 2/4/2 4/5/2 3/6/2
f 4/7/3 5/8/3 3/9/3
f 5/10/4 1/11/4 3/12/4
f 4/13/5 2/14/5 6/15/5
f 2/16/6 1/17/6 6/18/6
f 1/19/7 5/20/7 6/21/7
f 5/22/8 4/23/8 6/24/8
