# Blender v2.90.1 OBJ File: 'tetrahedron.blend'
# www.blender.org
o tetrahedron
v 0.688997 -0.672093 -1.564792
v -1.677799 -0.694565 0.278513
v -0.106184 1.830498 -0.114025
v 1.094988 -0.463840 1.400305
vt 0.001868 0.001992
vt 0.462384 0.267871
vt 0.001868 0.533749
vt 0.469932 0.533749
vt 0.469932 0.001992
vt 0.904110 0.267871
vt 0.501720 0.998008
vt 0.501720 0.537493
vt 0.935898 0.844503
vt 0.495966 0.537493
vt 0.495966 0.998008
vt 0.061788 0.844503
vn -0.5960 0.2525 -0.7622
vn 0.9133 0.3781 -0.1516
vn -0.3750 0.3658 0.8518
vn 0.0578 -0.9964 0.0621
s off
f 1/1/1 2/2/1 3/3/1
f 1/4/2 3/5/2 4/6/2
f 3/7/3 2/8/3 4/9/3
f 2/10/4 1/11/4 4/12/4
