# Blender v2.90.1 OBJ File: 'trapezohedron.blend'
# www.blender.org
v -0.001974 -1.420617 -1.353600
v -1.129698 -1.412408 -0.736353
v -1.824763 -0.342410 -0.578914
v 0.002455 1.116942 -1.587715
v 1.129682 1.392050 0.676573
v -1.125365 1.395915 0.675804
v 0.001959 1.400259 1.293819
v 1.125350 -1.416273 -0.735585
v -0.002156 -0.901753 1.788644
v -1.823987 0.328306 0.517890
v 1.823972 -0.348664 -0.577671
v 1.824747 0.322052 0.519133
vt 0.757872 0.344974
vt 0.998008 0.422998
vt 0.802265 0.617527
vt 0.520608 0.247037
vt 0.773103 0.247037
vt 0.646856 0.315183
vt 0.749716 0.842593
vt 0.497221 0.842593
vt 0.623468 0.630698
vt 0.242128 0.881641
vt 0.001992 0.803616
vt 0.217218 0.622292
vt 0.265690 0.343542
vt 0.032051 0.439283
vt 0.123031 0.328355
vt 0.271825 0.507372
vt 0.505465 0.603113
vt 0.362806 0.618301
vt 0.751737 0.354153
vt 0.511600 0.432178
vt 0.610610 0.328355
vt 0.001992 0.246980
vt 0.253782 0.265834
vt 0.122798 0.324363
vt 0.261398 0.265834
vt 0.513188 0.246980
vt 0.392382 0.324363
vt 0.249704 0.881641
vt 0.489840 0.803616
vt 0.390831 0.907439
vt 0.898998 0.319175
vt 0.646856 0.001811
vt 0.623468 0.883614
vt 0.101001 0.907439
vt 0.242188 0.618301
vt 0.481963 0.328355
vt 0.707343 0.626706
vt 0.183318 0.001811
vt 0.331862 0.001811
vt 0.274615 0.622292
vn 0.0001 -0.1269 -0.9919
vn -0.6492 0.2568 -0.7160
vn 0.0013 0.5853 -0.8108
vn 0.4036 0.8748 -0.2681
vn -0.4004 0.8761 -0.2684
vn 0.0017 0.9999 -0.0102
vn -0.3727 -0.8814 0.2901
vn 0.3695 -0.8827 0.2903
vn -0.0014 -0.5367 0.8437
vn 0.0000 0.2089 0.9779
vn -0.6826 -0.2660 0.6807
vn -0.7646 0.5500 -0.3358
vn 0.6506 0.2545 -0.7155
vn 0.7668 0.5474 -0.3353
vn 0.4732 -0.1822 -0.8619
vn -0.7668 -0.5474 0.3353
vn 0.6812 -0.2684 0.6812
vn 0.7646 -0.5500 0.3358
vn 0.4732 0.1805 0.8622
vn -0.4732 -0.1805 -0.8622
vn -0.0017 -0.9999 0.0102
vn -0.4732 0.1822 0.8619
s 1
f 1/1/1 3/2/2 4/3/3
f 5/4/4 6/5/5 7/6/6
f 2/7/7 8/8/8 9/9/9
f 7/10/10 10/11/11 9/12/9
f 6/13/5 3/14/2 10/15/12
f 11/16/13 5/17/4 12/18/14
f 1/19/1 11/20/13 8/21/15
f 2/22/7 10/23/11 3/24/16
f 12/25/17 8/26/8 11/27/18
f 7/28/10 12/29/17 5/30/19
f 1/1/1 2/31/20 3/2/2
f 5/4/4 4/32/3 6/5/5
f 2/7/7 1/33/21 8/8/8
f 7/10/10 6/34/22 10/11/11
f 6/13/5 4/35/3 3/14/2
f 11/16/13 4/36/3 5/17/4
f 1/19/1 4/37/3 11/20/13
f 2/22/7 9/38/9 10/23/11
f 12/25/17 9/39/9 8/26/8
f 7/28/10 9/40/9 12/29/17
